<?xml version="1.0" encoding="UTF-8"?>
<svg id="Calque_1" xmlns="http://www.w3.org/2000/svg" version="1.1" viewBox="0 0 600 600">
  <!-- Generator: Adobe Illustrator 29.6.1, SVG Export Plug-In . SVG Version: 2.1.1 Build 9)  -->
  <defs>
    <style>
      .st0 {
        fill: #aa4665;
      }
    </style>
  </defs>
  <path class="st0" d="M0,18.75C0,8.39,8.39,0,18.75,0h112.5c10.36,0,18.75,8.39,18.75,18.75s-8.39,18.75-18.75,18.75H37.5v93.75c0,10.36-8.39,18.75-18.75,18.75S0,141.61,0,131.25V18.75ZM450,18.75c0-10.36,8.39-18.75,18.75-18.75h112.5c10.36,0,18.75,8.39,18.75,18.75v112.5c0,10.36-8.39,18.75-18.75,18.75s-18.75-8.39-18.75-18.75V37.5h-93.75c-10.36,0-18.75-8.39-18.75-18.75M18.75,450c10.36,0,18.75,8.39,18.75,18.75v93.75h93.75c10.36,0,18.75,8.39,18.75,18.75s-8.39,18.75-18.75,18.75H18.75c-10.36,0-18.75-8.39-18.75-18.75v-112.5c0-10.36,8.39-18.75,18.75-18.75M581.25,450c10.36,0,18.75,8.39,18.75,18.75v112.5c0,10.36-8.39,18.75-18.75,18.75h-112.5c-10.36,0-18.75-8.39-18.75-18.75s8.39-18.75,18.75-18.75h93.75v-93.75c0-10.36,8.39-18.75,18.75-18.75M150,150h37.5v37.5h-37.5v-37.5Z"/>
  <path class="st0" d="M262.5,75H75v187.5h187.5V75ZM112.5,112.5h112.5v112.5h-112.5v-112.5ZM187.5,412.5h-37.5v37.5h37.5v-37.5Z"/>
  <path class="st0" d="M262.5,337.5H75v187.5h187.5v-187.5ZM112.5,375h112.5v112.5h-112.5v-112.5ZM412.5,150h37.5v37.5h-37.5v-37.5Z"/>
  <path class="st0" d="M337.5,75h187.5v187.5h-187.5V75ZM375,112.5v112.5h112.5v-112.5h-112.5ZM300,300v75h37.5v37.5h-37.5v37.5h75v-75h37.5v75h37.5v-37.5h75v-37.5h-112.5v-75h-112.5ZM375,375h-37.5v-37.5h37.5v37.5ZM525,450h-37.5v37.5h-75v37.5h112.5v-75ZM375,525v-37.5h-75v37.5h75Z"/>
  <path class="st0" d="M450,337.5h75v-37.5h-75v37.5Z"/>
</svg>